<svg fill="none" height="49" width="49" xmlns="http://www.w3.org/2000/svg"><g fill="#009975" stroke="#009975" stroke-miterlimit="10"><path d="m47.853 29.888c-.009-.086-.257-2.224-1.3-3.069-.734-.595-1.828-.336-2.443.38a.76.76 0 0 0 -.077.094c-2.521 3.009-6.734 4.492-10.725 5.535a20.853 20.853 0 0 1 -3.743.612c-.419.026-.829.034-1.247.034-.018 0-.026.009-.026.009h-.051c-.487 0 3.768 4.103 10.314 2.922.675-.12 1.384-.293 2.11-.534v.008c-.239.423-3.511 5.957-12.416 7.362-.914.138-1.88.242-2.914.285-.222.008-.453 0-.683-.009-10.4-.353-18.544-8.577-18.544-18.724 0-9.345 6.82-17.103 15.698-18.5a18.506 18.506 0 0 1 2.786-.215c5.161 0 10.135 2.198 13.638 6.025.257.276.556.518.906.664.436.181.88.224 1.308.173 1.452-.155 2.153-1.888 1.222-3.018-6.392-7.724-11.256-8.922-16.997-8.922-1.24 0-2.444.095-3.632.284-11.502 1.76-20.304 11.931-20.03 24.078.315 14.241 13.22 24.819 27.225 23.009.222-.026.445-.06.658-.095 4.162-.63 7.973-2.19 10.998-4.543a18.558 18.558 0 0 0 4.23-4.578c.487 1.586.803 4.414-.051 7.897-.017.06.051.12.102.077 1.214-.879 6.256-5.112 3.684-17.241z" stroke-width=".5"/><path d="m24.871 28.555c1.612-.601 2.157-3.163 1.219-5.721-.938-2.559-3.005-4.146-4.616-3.545-1.611.602-2.157 3.163-1.219 5.722s3.005 4.145 4.616 3.544zm6.848-12.425c-1.325.49-1.726 2.732-.889 5.008.838 2.276 2.58 3.715 3.905 3.215 1.325-.49 1.727-2.732.89-5.008-.83-2.267-2.582-3.707-3.906-3.216z"/></g></svg>
